<svg width="11" height="13" viewBox="0 0 11 13" fill="none" xmlns="http://www.w3.org/2000/svg">
<path d="M5.5 6.5C7.27318 6.5 8.70833 5.04621 8.70833 3.25C8.70833 1.45379 7.27318 0 5.5 0C3.72682 0 2.29167 1.45379 2.29167 3.25C2.29167 5.04621 3.72682 6.5 5.5 6.5ZM7.7 7.42857H7.46224C6.86641 7.71875 6.20469 7.89286 5.5 7.89286C4.79531 7.89286 4.13646 7.71875 3.53776 7.42857H3.3C1.47813 7.42857 0 8.92589 0 10.7714V11.6071C0 12.3761 0.615885 13 1.375 13H9.625C10.3841 13 11 12.3761 11 11.6071V10.7714C11 8.92589 9.52187 7.42857 7.7 7.42857Z" fill="#a8a8a8"/>
</svg>
