<svg width="24" height="22" viewBox="0 0 24 22" fill="none" xmlns="http://www.w3.org/2000/svg">
<path d="M21.6 0H2.4C1.08 0 0.012 1.2375 0.012 2.75L0 19.25C0 20.7625 1.08 22 2.4 22H21.6C22.92 22 24 20.7625 24 19.25V2.75C24 1.2375 22.92 0 21.6 0ZM21.12 5.84375L12.636 11.9213C12.252 12.1963 11.748 12.1963 11.364 11.9213L2.88 5.84375C2.75967 5.76635 2.6543 5.66178 2.57027 5.53637C2.48623 5.41096 2.42527 5.26732 2.39109 5.11413C2.35691 4.96095 2.3502 4.80141 2.37139 4.64517C2.39257 4.48893 2.4412 4.33924 2.51434 4.20516C2.58747 4.07108 2.68359 3.9554 2.79687 3.86512C2.91015 3.77483 3.03825 3.71183 3.17339 3.67991C3.30854 3.64799 3.44794 3.64783 3.58315 3.67943C3.71835 3.71103 3.84656 3.77373 3.96 3.86375L12 9.625L20.04 3.86375C20.1534 3.77373 20.2816 3.71103 20.4169 3.67943C20.5521 3.64783 20.6915 3.64799 20.8266 3.67991C20.9618 3.71183 21.0898 3.77483 21.2031 3.86512C21.3164 3.9554 21.4125 4.07108 21.4857 4.20516C21.5588 4.33924 21.6074 4.48893 21.6286 4.64517C21.6498 4.80141 21.6431 4.96095 21.6089 5.11413C21.5747 5.26732 21.5138 5.41096 21.4297 5.53637C21.3457 5.66178 21.2403 5.76635 21.12 5.84375Z" fill="#565656"/>
</svg>
