<svg width="33" height="30" viewBox="0 0 33 30" fill="none" xmlns="http://www.w3.org/2000/svg">
<path d="M31.4776 14.7542L16.8734 0.328544C16.7682 0.224397 16.6433 0.14177 16.5058 0.0853942C16.3683 0.0290184 16.2209 0 16.0721 0C15.9232 0 15.7758 0.0290184 15.6383 0.0853942C15.5008 0.14177 15.3759 0.224397 15.2708 0.328544L0.666568 14.7542C0.241099 15.1748 0 15.7461 0 16.3419C0 17.5791 1.01758 18.5849 2.26917 18.5849H3.80795V28.8785C3.80795 29.4988 4.31497 30 4.94253 30H13.8029V22.1493H17.774V30H27.2017C27.8292 30 28.3362 29.4988 28.3362 28.8785V18.5849H29.875C30.4778 18.5849 31.0557 18.3501 31.4812 17.926C32.364 17.0498 32.364 15.6304 31.4776 14.7542Z" fill="white"/>
</svg>
