<svg width="14" height="12" viewBox="0 0 14 12" fill="none" xmlns="http://www.w3.org/2000/svg">
<path d="M9.90677 0C8.59827 0 7.48018 0.932682 6.86588 1.57569C6.25159 0.932682 5.13599 0 3.82811 0C1.57382 0 0 1.57132 0 3.82062C0 6.29903 1.95464 7.90095 3.84559 9.45042C4.73832 10.1827 5.66226 10.9393 6.37083 11.7784C6.49006 11.9188 6.66486 12 6.8484 12H6.88461C7.06878 12 7.24295 11.9182 7.36157 11.7784C8.07138 10.9393 8.99469 10.1821 9.88805 9.45042C11.7784 7.90157 13.7343 6.29966 13.7343 3.82062C13.7343 1.57132 12.1604 0 9.90677 0Z" fill="#707070"/>
</svg>
