<svg width="33" height="30" viewBox="0 0 33 30" fill="none" xmlns="http://www.w3.org/2000/svg">
<path d="M5.92272 29.5961C5.69012 29.8016 5.40465 29.9354 5.09982 29.9818C4.79498 30.0282 4.48345 29.9853 4.20178 29.8581C3.92011 29.7309 3.68 29.5247 3.50964 29.2637C3.33928 29.0026 3.24574 28.6976 3.24 28.3845V24.6922C2.3807 24.6922 1.55659 24.3453 0.948974 23.7279C0.341356 23.1105 0 22.2731 0 21.3999V9.87687C0 9.0037 0.341356 8.1663 0.948974 7.54887C1.55659 6.93145 2.3807 6.58458 3.24 6.58458H21.06C21.9193 6.58458 22.7434 6.93145 23.351 7.54887C23.9586 8.1663 24.3 9.0037 24.3 9.87687V21.3999C24.3 22.2731 23.9586 23.1105 23.351 23.7279C22.7434 24.3453 21.9193 24.6922 21.06 24.6922H12.9649L5.92272 29.5961ZM25.92 16.4894C25.9149 16.6919 25.9149 16.8944 25.92 17.0969V16.4878C25.9281 16.3117 25.9297 14.1058 25.9265 9.87193C25.9252 8.56304 25.4126 7.30819 24.5013 6.38312C23.59 5.45806 22.3546 4.93844 21.0665 4.93844H8.1V3.29229C8.1 2.41912 8.44136 1.58171 9.04897 0.96429C9.65659 0.346865 10.4807 0 11.34 0H29.16C30.0193 0 30.8434 0.346865 31.451 0.96429C32.0586 1.58171 32.4 2.41912 32.4 3.29229V14.8153C32.4 15.6885 32.0586 16.5259 31.451 17.1433C30.8434 17.7607 30.0193 18.1076 29.16 18.1076V21.7999C29.1543 22.1131 29.0607 22.4181 28.8904 22.6791C28.72 22.9401 28.4799 23.1463 28.1982 23.2735C27.9166 23.4007 27.605 23.4437 27.3002 23.3972C26.9954 23.3508 26.7099 23.217 26.4773 23.0115L25.92 22.623V16.4894Z" fill="white"/>
</svg>
