<svg width="26" height="28" viewBox="0 0 26 28" fill="none" xmlns="http://www.w3.org/2000/svg">
<path d="M12.6 28C13.467 28.0011 14.3128 27.732 15.0199 27.2302C15.7269 26.7284 16.2601 26.0188 16.5452 25.2H8.6548C8.93993 26.0188 9.47307 26.7284 10.1801 27.2302C10.8872 27.732 11.733 28.0011 12.6 28ZM22.4 17.6204V11.2C22.4 6.6962 19.341 2.9022 15.197 1.7612C14.7868 0.728 13.7844 0 12.6 0C11.4156 0 10.4132 0.728 10.003 1.7612C5.859 2.9036 2.8 6.6962 2.8 11.2V17.6204L0.410201 20.0102C0.279942 20.14 0.176639 20.2943 0.10624 20.4641C0.0358402 20.634 -0.000265229 20.8161 1.46674e-06 21V22.4C1.46674e-06 22.7713 0.147501 23.1274 0.410052 23.3899C0.672603 23.6525 1.0287 23.8 1.4 23.8H23.8C24.1713 23.8 24.5274 23.6525 24.79 23.3899C25.0525 23.1274 25.2 22.7713 25.2 22.4V21C25.2003 20.8161 25.1642 20.634 25.0938 20.4641C25.0234 20.2943 24.9201 20.14 24.7898 20.0102L22.4 17.6204Z" fill="white"/>
</svg>
